HIERARCHY
ROOT Pelvis
{
	OFFSET 0.000000 0.941512 0.000000
	CHANNELS 6 Xposition Yposition Zposition Zrotation Yrotation Xrotation 
	JOINT Pelvis_L_Hip
	{
		OFFSET 0.000000 0.000000 0.000000
		CHANNELS 3 Zrotation Yrotation Xrotation
		JOINT L_Hip
		{
			OFFSET 0.062321 -0.080322 -0.016990
			CHANNELS 3 Zrotation Yrotation Xrotation
			JOINT L_Knee
			{
				OFFSET 0.093051 -0.381305 -0.029784
				CHANNELS 3 Zrotation Yrotation Xrotation
				JOINT L_Ankle
				{
					OFFSET -0.010371 -0.431000 -0.033614
					CHANNELS 3 Zrotation Yrotation Xrotation
					End Site #name: L_Foot
					{
						OFFSET 0.069299 -0.038670 0.119418
					}
				}
			}
		}
	}
	JOINT Pelvis_R_Hip
	{
		OFFSET 0.000000 0.000000 0.000000
		CHANNELS 3 Zrotation Yrotation Xrotation
		JOINT R_Hip
		{
			OFFSET -0.055334 -0.094904 -0.002373
			CHANNELS 3 Zrotation Yrotation Xrotation
			JOINT R_Knee
			{
				OFFSET -0.064207 -0.384370 -0.019592
				CHANNELS 3 Zrotation Yrotation Xrotation
				JOINT R_Ankle
				{
					OFFSET 0.025418 -0.419734 -0.065953
					CHANNELS 3 Zrotation Yrotation Xrotation
					End Site #name: R_Foot
					{
						OFFSET -0.057233 -0.039888 0.132134
					}
				}
			}
		}
	}
	JOINT Pelvis_Spine1
	{
		OFFSET 0.000000 0.000000 0.000000
		CHANNELS 3 Zrotation Yrotation Xrotation
		JOINT Spine1
		{
			OFFSET -0.005562 0.124093 -0.043360
			CHANNELS 3 Zrotation Yrotation Xrotation
			JOINT Spine2
			{
				OFFSET 0.012244 0.139499 0.029894
				CHANNELS 3 Zrotation Yrotation Xrotation
				JOINT Spine3
				{
					OFFSET -0.002556 0.056561 0.009225
					CHANNELS 3 Zrotation Yrotation Xrotation
					JOINT Spine3_Neck
					{
						OFFSET 0.000000 0.000000 0.000000
						CHANNELS 3 Zrotation Yrotation Xrotation
						JOINT Neck
						{
							OFFSET -0.005205 0.217920 -0.024551
							CHANNELS 3 Zrotation Yrotation Xrotation
							End Site #name: Head
							{
								OFFSET 0.002365 0.091850 0.046637
							}
						}
					}
					JOINT Spine3_L_Collar
					{
						OFFSET 0.000000 0.000000 0.000000
						CHANNELS 3 Zrotation Yrotation Xrotation
						JOINT L_Collar
						{
							OFFSET 0.072225 0.116603 -0.009480
							CHANNELS 3 Zrotation Yrotation Xrotation
							JOINT L_Shoulder
							{
								OFFSET 0.115937 -0.058643 -0.021018
								CHANNELS 3 Zrotation Yrotation Xrotation
								JOINT L_Elbow
								{
									OFFSET 0.021994 -0.254722 -0.024492
									CHANNELS 3 Zrotation Yrotation Xrotation
									End Site #name: L_Wrist
									{
										OFFSET 0.048810 -0.240214 0.103329
									}
								}
							}
						}
					}
					JOINT Spine3_R_Collar
					{
						OFFSET 0.000000 0.000000 0.000000
						CHANNELS 3 Zrotation Yrotation Xrotation
						JOINT R_Collar
						{
							OFFSET -0.073372 0.120704 -0.024611
							CHANNELS 3 Zrotation Yrotation Xrotation
							JOINT R_Shoulder
							{
								OFFSET -0.108089 -0.054969 -0.020504
								CHANNELS 3 Zrotation Yrotation Xrotation
								JOINT R_Elbow
								{
									OFFSET -0.033684 -0.260739 0.009889
									CHANNELS 3 Zrotation Yrotation Xrotation
									End Site #name: R_Wrist
									{
										OFFSET -0.067980 -0.232763 0.118463
									}
								}
							}
						}
					}
				}
			}
		}
	}
}
MOTION
Frames: 17
Frame Time: 0.041667
0.000000 0.941862 0.000000 -4.587008 -0.406580 -3.450229 0.000000 0.000000 0.000000 1.207141 -2.734103 -11.448214 -11.037189 6.725003 68.720801 3.232454 12.223267 2.027447 0.000000 0.000000 0.000000 9.866516 4.054182 -17.494964 -1.788033 1.948139 21.020218 4.421786 4.273985 6.657165 0.000000 0.000000 0.000000 6.165948 -2.604546 8.799223 -0.128664 -0.337457 -7.808372 1.852207 1.809220 7.408291 0.000000 0.000000 0.000000 -4.040842 2.194874 6.258148 0.000000 0.000000 0.000000 19.383001 -2.477709 2.316822 -20.660378 -0.055504 -8.561889 -6.071102 -8.888584 -21.279593 0.000000 0.000000 0.000000 -23.082430 3.978662 1.556870 22.165437 -2.714125 9.942111 5.843113 3.900200 -2.417020 
-0.003703 0.957663 -0.002806 -3.856476 -1.481782 -3.907078 0.000000 0.000000 0.000000 2.458283 -4.390351 -19.210638 -13.856266 8.905488 65.686370 5.731029 14.139266 -1.650609 0.000000 0.000000 0.000000 9.531906 1.685435 -8.344369 -3.148047 1.834705 14.458868 4.542800 8.014231 4.337301 0.000000 0.000000 0.000000 4.480221 -2.184119 9.598943 -0.130021 -0.354672 -8.349442 2.704060 3.181935 7.438655 0.000000 0.000000 0.000000 -4.176753 2.270500 7.009545 0.000000 0.000000 0.000000 19.433177 -1.063800 3.430714 -23.002985 0.528621 -6.817979 -6.882599 -9.073013 -20.124983 0.000000 0.000000 0.000000 -24.768503 6.152225 -0.024827 22.205719 -2.287836 8.665134 5.817230 5.208295 -5.956529 
-0.006907 0.962238 -0.006139 -3.631355 -2.719643 -4.045828 0.000000 0.000000 0.000000 3.612065 -5.455584 -25.098089 -13.729212 7.650610 55.678633 7.002634 15.345253 -3.519895 0.000000 0.000000 0.000000 8.555191 -0.315768 -0.314481 -2.867117 1.212114 8.493056 4.867359 10.801322 3.242286 0.000000 0.000000 0.000000 4.108699 -2.131807 10.308795 -0.955335 -0.287753 -8.642064 3.488662 4.467459 7.070844 0.000000 0.000000 0.000000 -4.800076 2.629365 7.025598 0.000000 0.000000 0.000000 19.322330 0.195089 4.364691 -24.838352 1.451734 -4.080585 -6.579580 -8.517800 -19.024642 0.000000 0.000000 0.000000 -26.959610 8.821668 -2.087030 22.077647 -1.851320 7.440011 5.529969 6.660903 -10.181672 
-0.008441 0.955029 -0.009436 -3.699536 -3.449948 -3.985708 0.000000 0.000000 0.000000 3.777325 -6.101070 -28.570575 -9.789334 3.852589 40.827684 8.091665 17.994174 -3.932136 0.000000 0.000000 0.000000 8.008020 -1.875697 6.333601 -3.329143 1.005460 5.208799 4.015561 12.649446 0.640692 0.000000 0.000000 0.000000 4.298339 -2.265334 11.048849 -1.383004 -0.299875 -9.684241 3.447158 5.149345 7.768372 0.000000 0.000000 0.000000 -4.988509 2.705136 5.026810 0.000000 0.000000 0.000000 19.045635 2.228545 5.793156 -25.284936 1.827844 -3.068561 -7.664230 -8.052977 -15.459412 0.000000 0.000000 0.000000 -28.465610 9.623183 -2.691954 20.466172 -0.600368 3.657507 6.201890 8.247631 -13.007866 
-0.007691 0.939773 -0.014186 -3.719268 -4.229873 -2.775208 0.000000 0.000000 0.000000 2.780361 -6.332745 -29.034116 -2.375852 0.238172 19.848242 8.001102 19.107196 -2.897510 0.000000 0.000000 0.000000 7.319479 -2.350660 8.665823 -4.072752 1.380721 7.324483 2.244913 13.892311 -3.208993 0.000000 0.000000 0.000000 4.805120 -2.322005 10.313888 -2.062115 -0.225513 -9.418105 3.480131 5.548603 7.642929 0.000000 0.000000 0.000000 -5.180616 2.795211 3.945739 0.000000 0.000000 0.000000 18.017821 3.258337 6.213292 -25.465438 2.234680 -1.808403 -6.742841 -5.626065 -9.394756 0.000000 0.000000 0.000000 -29.318102 10.630494 -3.489003 18.412051 0.293532 0.708866 5.328224 8.867146 -16.009988 
-0.004233 0.922831 -0.014666 -3.911665 -4.877006 -2.765509 0.000000 0.000000 0.000000 1.473004 -5.878824 -25.932427 2.314461 -0.340721 3.468783 7.428038 13.958414 -5.931773 0.000000 0.000000 0.000000 6.056456 -2.722494 11.162161 -4.342744 1.980641 12.096298 1.262336 15.389373 -5.641630 0.000000 0.000000 0.000000 5.254735 -2.492574 10.678028 -2.469271 -0.153428 -8.823893 3.686896 5.971786 7.123128 0.000000 0.000000 0.000000 -5.688902 3.074829 3.920924 0.000000 0.000000 0.000000 17.392681 2.277340 5.349741 -26.706590 2.625509 -0.924412 -4.930941 -2.732411 -2.291316 0.000000 0.000000 0.000000 -31.166346 12.218468 -4.848255 18.431789 0.289664 0.796947 2.479777 8.815930 -21.199768 
-0.000087 0.912983 -0.010868 -3.527765 -4.454673 -2.599981 0.000000 0.000000 0.000000 0.152019 -6.634905 -28.167612 0.883885 -0.439951 12.958060 6.698650 8.588758 -7.891528 0.000000 0.000000 0.000000 5.097973 -2.633979 11.399346 -5.756121 3.512673 20.763466 2.041246 16.993614 -4.951413 0.000000 0.000000 0.000000 4.157785 -2.147040 10.561098 -1.862861 -0.229075 -9.233619 3.441666 5.690340 6.724597 0.000000 0.000000 0.000000 -5.018137 2.701397 4.283377 0.000000 0.000000 0.000000 17.064450 0.910356 4.309842 -27.580592 3.134985 0.348499 -2.883352 -0.008921 5.393692 0.000000 0.000000 0.000000 -30.228564 11.150004 -3.889110 18.105513 0.164191 1.230748 1.415840 9.177801 -24.265277 
0.005020 0.913618 -0.003322 -2.874083 -4.155806 -2.072647 0.000000 0.000000 0.000000 -0.811541 -6.541845 -26.981200 -1.055537 -0.083457 16.761508 4.893701 11.063398 -2.392722 0.000000 0.000000 0.000000 4.010182 -1.064039 4.295749 -4.370558 5.552815 39.081148 8.951768 15.442365 7.898606 0.000000 0.000000 0.000000 2.526081 -1.472329 8.893259 -0.993582 -0.284733 -8.913755 2.879893 4.820118 6.522940 0.000000 0.000000 0.000000 -3.579409 1.905205 5.174369 0.000000 0.000000 0.000000 17.183040 1.309042 4.536310 -26.375881 3.993160 3.362064 -4.759284 -0.749075 5.279909 0.000000 0.000000 0.000000 -28.283635 9.046396 -1.991409 18.191916 -0.072891 2.030473 2.120338 9.924057 -24.655166 
0.009884 0.925935 -0.002229 -2.119853 -3.360731 -3.008715 0.000000 0.000000 0.000000 -2.903277 -6.251768 -24.258246 -2.035503 0.141071 22.358170 5.515509 9.857213 -4.489459 0.000000 0.000000 0.000000 3.168146 0.862989 -5.210155 -0.556154 5.443403 56.803710 16.121877 4.717244 28.219773 0.000000 0.000000 0.000000 1.340583 -1.338165 11.086788 -1.598159 -0.388151 -11.695495 3.190196 3.176652 7.880613 0.000000 0.000000 0.000000 -3.059876 1.634144 4.795242 0.000000 0.000000 0.000000 18.630443 0.339703 4.081106 -26.251940 4.758314 5.475419 -5.576137 -1.558757 3.331998 0.000000 0.000000 0.000000 -27.163655 7.266852 -0.376746 19.501658 -0.107471 2.024496 4.322581 10.105660 -20.795001 
0.015873 0.937075 -0.002977 -2.139661 -3.374100 -4.560555 0.000000 0.000000 0.000000 -4.815383 -4.057087 -15.341892 -1.348363 -0.038557 17.950884 6.232743 7.980172 -7.185054 0.000000 0.000000 0.000000 1.943192 2.444588 -13.595947 3.839354 2.766016 65.983404 11.708809 2.310696 22.508675 0.000000 0.000000 0.000000 1.885310 -1.716945 13.232602 -1.821868 -0.379282 -11.745687 2.568344 2.231818 8.623990 0.000000 0.000000 0.000000 -3.581814 1.931457 3.136127 0.000000 0.000000 0.000000 18.868008 -1.839782 2.465951 -25.977054 4.509957 4.716998 -4.757404 -1.104175 3.835938 0.000000 0.000000 0.000000 -25.723527 7.100717 -0.299644 20.174080 -0.688134 3.814263 4.987877 9.691194 -18.604867 
0.019692 0.952234 -0.007254 -3.591274 -2.805204 -4.682731 0.000000 0.000000 0.000000 -4.557497 -1.889385 -7.736896 -0.279727 -0.230351 12.834212 6.386341 5.203102 -9.011110 0.000000 0.000000 0.000000 1.872869 4.025516 -21.833663 7.080215 -0.502459 63.136741 9.546341 4.036165 16.944498 0.000000 0.000000 0.000000 4.251625 -2.741357 14.847303 -2.415627 -0.431963 -13.024045 2.187498 1.356875 8.564568 0.000000 0.000000 0.000000 -4.005963 2.197984 4.305618 0.000000 0.000000 0.000000 19.122414 -2.541356 1.967625 -25.157869 3.571205 2.201467 -4.617588 -1.276994 2.910540 0.000000 0.000000 0.000000 -24.140664 4.662683 1.522797 19.970190 -0.880394 4.448806 8.450328 9.486935 -12.286823 
0.021154 0.959527 -0.011395 -4.456172 -1.713983 -4.225539 0.000000 0.000000 0.000000 -4.285649 0.081775 -0.796009 0.038578 -0.188790 7.742137 6.761507 2.695144 -10.884954 0.000000 0.000000 0.000000 2.012375 5.102977 -27.384051 7.696291 -1.428569 51.284709 6.767293 3.794865 11.711821 0.000000 0.000000 0.000000 5.371046 -3.053575 13.884571 -1.762138 -0.370888 -11.139258 1.627365 0.464552 6.642251 0.000000 0.000000 0.000000 -3.492255 1.929657 6.752408 0.000000 0.000000 0.000000 19.842960 -3.980378 1.003690 -24.191958 2.700229 0.063564 -4.994629 -1.935151 0.913589 0.000000 0.000000 0.000000 -23.517939 3.340333 2.486583 20.998049 -1.970018 7.987545 8.583044 8.192657 -9.077817 
0.024088 0.953112 -0.017921 -4.033228 -0.842426 -3.141738 0.000000 0.000000 0.000000 -5.552676 1.633269 4.114614 0.831960 -0.210627 4.633219 7.164976 0.821752 -12.429113 0.000000 0.000000 0.000000 1.491753 5.815914 -31.900366 5.586273 -0.430336 35.299845 3.943583 -1.247690 9.891578 0.000000 0.000000 0.000000 5.530789 -3.135638 13.798774 -2.040446 -0.438301 -12.401179 1.538242 -0.186393 7.225447 0.000000 0.000000 0.000000 -3.545760 1.951476 5.700707 0.000000 0.000000 0.000000 21.209576 -4.470371 0.842650 -22.661736 1.291247 -4.230963 -5.821022 -2.654929 -0.464982 0.000000 0.000000 0.000000 -23.272312 1.380914 4.015231 21.704663 -2.691099 10.015172 9.293566 7.070581 -5.393398 
0.023216 0.940132 -0.024802 -3.626683 0.381792 -1.816562 0.000000 0.000000 0.000000 -6.438185 2.159216 5.464463 1.142472 -0.332606 7.032913 8.015245 0.348414 -14.051409 0.000000 0.000000 0.000000 2.095869 6.135751 -33.233842 1.508233 0.503038 15.768759 2.483044 -4.570136 9.623486 0.000000 0.000000 0.000000 5.013567 -2.927022 13.209618 -1.965363 -0.480013 -12.775104 1.825258 -0.858858 7.576846 0.000000 0.000000 0.000000 -3.431016 1.882212 5.460721 0.000000 0.000000 0.000000 22.110495 -5.684809 0.048390 -20.491066 0.007124 -8.441990 -6.068007 -3.185052 -2.022160 0.000000 0.000000 0.000000 -22.822741 -0.587692 5.442534 22.341595 -3.118113 11.115253 8.383479 5.024233 -1.676882 
0.020607 0.924783 -0.026734 -3.685665 1.168168 -2.022838 0.000000 0.000000 0.000000 -6.769111 3.027727 8.167785 1.479186 -0.540180 11.005099 9.744213 1.625241 -16.587830 0.000000 0.000000 0.000000 4.158670 6.094193 -30.785638 -2.197174 0.355654 0.087106 4.116281 -0.394858 9.768185 0.000000 0.000000 0.000000 5.404821 -3.059672 13.039411 -2.254155 -0.409791 -11.769155 1.927827 -0.917001 7.834111 0.000000 0.000000 0.000000 -3.669435 2.006079 5.060563 0.000000 0.000000 0.000000 22.975394 -7.356207 -1.087293 -19.112723 -0.900534 -11.835324 -4.684508 -3.341895 -5.090045 0.000000 0.000000 0.000000 -23.040363 -0.531900 5.373476 24.290495 -3.822443 12.614788 6.370653 2.704364 1.629668 
0.018042 0.910962 -0.027212 -3.569158 1.391768 -1.624850 0.000000 0.000000 0.000000 -6.081243 3.704040 10.761256 1.412799 -0.712276 15.428468 10.491970 -0.233033 -18.681491 0.000000 0.000000 0.000000 5.170483 6.789325 -32.983358 -1.112933 0.517729 4.903213 3.102621 -2.754579 9.539206 0.000000 0.000000 0.000000 5.239155 -2.856100 11.995116 -1.923670 -0.366127 -10.748224 2.028832 -0.960483 8.077066 0.000000 0.000000 0.000000 -3.624771 1.972569 4.576062 0.000000 0.000000 0.000000 22.795535 -7.126608 -0.909798 -18.168395 -1.531706 -14.422163 -3.653146 -3.923408 -9.367124 0.000000 0.000000 0.000000 -22.504916 -0.452388 5.166444 23.660033 -4.217109 13.885626 5.832444 1.675333 3.779591 
0.014007 0.906769 -0.019171 -3.885497 1.464150 -1.474899 0.000000 0.000000 0.000000 -4.844570 4.099074 12.899571 1.509314 -1.034412 22.176748 9.066612 -3.582098 -17.343891 0.000000 0.000000 0.000000 7.577833 7.494847 -33.400808 -0.348440 1.116421 17.049115 3.142334 -1.445928 8.474324 0.000000 0.000000 0.000000 5.938563 -2.764815 9.902249 -1.455364 -0.319621 -9.421114 1.525363 -1.288242 8.181515 0.000000 0.000000 0.000000 -3.364449 1.835201 5.185814 0.000000 0.000000 0.000000 21.569319 -6.021776 -0.231866 -17.381615 -1.310403 -13.557090 -3.503516 -5.226731 -14.619142 0.000000 0.000000 0.000000 -21.903762 -1.017502 5.482678 22.271992 -4.147014 14.126068 5.894639 1.445215 4.526008 
